<svg xmlns="http://www.w3.org/2000/svg" width="64" height="64" viewBox="0 0 64 64">
  <defs>
    <linearGradient id="favBg" x1="6" y1="6" x2="58" y2="58" gradientUnits="userSpaceOnUse">
      <stop offset="0" stop-color="#4E8CFF"/>
      <stop offset="1" stop-color="#6D5BCE"/>
    </linearGradient>
  </defs>
  <rect x="3" y="3" width="58" height="58" rx="14" fill="url(#favBg)"/>
  <path d="M17.3 21.2c0-4.5 3.8-7.8 8.6-7.8 5.1 0 8.5 3.2 8.5 7.7 0 3.8-2.5 5.9-5.8 8.2l-3.7 2.6h9.7v4.9H17.7v-4.8l7.8-5.3c2.1-1.4 3.2-2.6 3.2-4.4 0-2-1.4-3.2-3.3-3.2s-3.4 1.4-3.4 3.5v.3h-4.7v-1.6Z" fill="#F4F8FF"/>
  <path d="M49.6 29.9h-6.8v4.7H47c-.7 2.9-2.9 4.3-5.8 4.3-3.9 0-6.6-2.7-6.6-6.7 0-3.9 2.6-6.6 6.4-6.6 2.3 0 4.1.8 5.4 2.5l3.7-3.4c-2.2-2.7-5.1-4.1-9.2-4.1-6.9 0-12 4.8-12 11.5 0 6.8 5.1 11.6 12.2 11.6 6.4 0 10.6-3.9 10.6-9.8 0-1.4-.1-2.2-.3-3.2Z" fill="#EAF2FF"/>
</svg>
