<svg xmlns="http://www.w3.org/2000/svg" width="128" height="128" viewBox="0 0 128 128" role="img" aria-labelledby="logoTitle logoDesc">
  <title id="logoTitle">2Gold Logo</title>
  <desc id="logoDesc">Gradient square icon with 2G monogram for 2Gold order manager.</desc>
  <defs>
    <linearGradient id="bg" x1="12" y1="8" x2="118" y2="120" gradientUnits="userSpaceOnUse">
      <stop offset="0" stop-color="#4E8CFF"/>
      <stop offset="1" stop-color="#6D5BCE"/>
    </linearGradient>
    <linearGradient id="shine" x1="26" y1="24" x2="98" y2="102" gradientUnits="userSpaceOnUse">
      <stop offset="0" stop-color="#FFFFFF" stop-opacity="0.95"/>
      <stop offset="1" stop-color="#DCE8FF" stop-opacity="0.86"/>
    </linearGradient>
  </defs>
  <rect x="6" y="6" width="116" height="116" rx="28" fill="url(#bg)"/>
  <path d="M33 40c0-9.6 8.2-16.8 18.4-16.8 10.8 0 18.3 7.1 18.3 16.7 0 8.2-5.4 12.8-12.4 17.7L49.5 63h20.7v10.4H33.8V63.1l16.6-11.3c4.5-3.1 6.9-5.6 6.9-9.5 0-4.1-2.9-7-7-7-4.2 0-7.3 3-7.3 7.4v.7H33v-3.4Z" fill="url(#shine)"/>
  <path d="M95 58.5H80.6v10h8.8c-1.4 6.2-6.2 9.2-12.4 9.2-8.3 0-14-5.8-14-14.3 0-8.4 5.6-14.1 13.7-14.1 5 0 8.7 1.7 11.6 5.3l7.9-7.2c-4.7-5.7-10.9-8.7-19.7-8.7-14.8 0-25.6 10.3-25.6 24.7 0 14.6 10.9 24.8 26.2 24.8 13.6 0 22.6-8.3 22.6-21 0-2.9-.2-4.8-.7-6.9Z" fill="#ECF4FF"/>
  <path d="M8 50c10-20.2 28.4-32.1 55.2-35.8C43.5 8.5 25.9 14.2 14.8 31.5A52.6 52.6 0 0 0 8 50Z" fill="#FFFFFF" fill-opacity="0.15"/>
</svg>
